<svg width="20" height="19" viewBox="0 0 20 19" fill="none" xmlns="http://www.w3.org/2000/svg">
<path d="M15.9328 18.8206C18.1791 18.8206 20 16.9997 20 14.7535C20 12.5073 18.1791 10.6863 15.9328 10.6863C13.6866 10.6863 11.8657 12.5073 11.8657 14.7535C11.8657 16.9997 13.6866 18.8206 15.9328 18.8206Z" fill="#F2571F"/>
<path fill-rule="evenodd" clip-rule="evenodd" d="M7.67186 9.90385C8.21063 8.93197 10.6826 8.64674 11.7496 8.13967C13.1651 7.50583 14.137 6.09026 14.1476 4.45285C13.9785 -0.871382 6.39363 -1.01928 6.01332 4.28383C5.89712 5.66771 7.16479 8.10798 6.49927 9.24889C6.35137 9.49186 6.06614 9.8299 5.14708 10.1679C4.13294 10.5483 2.87583 10.7067 1.93564 11.2983C-2.4801 14.2562 1.40744 20.7742 6.11896 18.2811C7.53453 17.4571 8.28457 15.9147 8.13668 14.3724C8.05217 13.1575 7.04859 10.8652 7.67186 9.90385Z" fill="#F2571F"/>
</svg>
