<svg width="28" height="28" viewBox="0 0 28 28" fill="none" xmlns="http://www.w3.org/2000/svg">
<g clip-path="url(#clip0)">
<path d="M13.9995 7.62302C16.0776 7.62302 16.3237 7.63213 17.141 7.66859C17.9005 7.70201 18.3107 7.82962 18.5841 7.93595C18.9456 8.07571 19.2069 8.24585 19.4773 8.51625C19.7508 8.78969 19.9179 9.04793 20.0576 9.40948C20.164 9.68292 20.2916 10.0961 20.325 10.8526C20.3614 11.6729 20.3706 11.919 20.3706 13.9941C20.3706 16.0722 20.3614 16.3183 20.325 17.1356C20.2916 17.8952 20.164 18.3053 20.0576 18.5788C19.9179 18.9403 19.7477 19.2016 19.4773 19.472C19.2039 19.7454 18.9456 19.9125 18.5841 20.0523C18.3107 20.1586 17.8975 20.2862 17.141 20.3196C16.3206 20.3561 16.0745 20.3652 13.9995 20.3652C11.9213 20.3652 11.6752 20.3561 10.858 20.3196C10.0984 20.2862 9.68826 20.1586 9.41482 20.0523C9.05328 19.9125 8.79199 19.7424 8.52159 19.472C8.24816 19.1985 8.08105 18.9403 7.9413 18.5788C7.83496 18.3053 7.70736 17.8921 7.67394 17.1356C7.63748 16.3153 7.62836 16.0692 7.62836 13.9941C7.62836 11.916 7.63748 11.6699 7.67394 10.8526C7.70736 10.0931 7.83496 9.68292 7.9413 9.40948C8.08105 9.04793 8.25119 8.78665 8.52159 8.51625C8.79503 8.24281 9.05328 8.07571 9.41482 7.93595C9.68826 7.82962 10.1015 7.70201 10.858 7.66859C11.6752 7.63213 11.9213 7.62302 13.9995 7.62302ZM13.9995 6.22241C11.8879 6.22241 11.6236 6.23153 10.7942 6.26799C9.96777 6.30444 9.39963 6.43812 8.90744 6.62953C8.39399 6.83005 7.95953 7.09437 7.5281 7.52884C7.09364 7.96026 6.82932 8.39472 6.6288 8.90514C6.43739 9.40036 6.30371 9.96547 6.26725 10.7919C6.23079 11.6243 6.22168 11.8886 6.22168 14.0002C6.22168 16.1117 6.23079 16.3761 6.26725 17.2055C6.30371 18.0319 6.43739 18.6 6.6288 19.0922C6.82932 19.6057 7.09364 20.0401 7.5281 20.4715C7.95953 20.903 8.39399 21.1703 8.90441 21.3678C9.39963 21.5592 9.96474 21.6929 10.7911 21.7294C11.6206 21.7658 11.8849 21.7749 13.9964 21.7749C16.108 21.7749 16.3723 21.7658 17.2017 21.7294C18.0281 21.6929 18.5962 21.5592 19.0884 21.3678C19.5989 21.1703 20.0333 20.903 20.4647 20.4715C20.8962 20.0401 21.1635 19.6057 21.361 19.0952C21.5524 18.6 21.6861 18.0349 21.7225 17.2085C21.759 16.3791 21.7681 16.1148 21.7681 14.0032C21.7681 11.8917 21.759 11.6274 21.7225 10.7979C21.6861 9.97154 21.5524 9.4034 21.361 8.91121C21.1696 8.39472 20.9053 7.96026 20.4708 7.52884C20.0394 7.09741 19.6049 6.83005 19.0945 6.63257C18.5993 6.44116 18.0342 6.30748 17.2078 6.27102C16.3753 6.23153 16.111 6.22241 13.9995 6.22241Z" fill="#ffffff"/>
<path d="M13.9991 10.0049C11.7934 10.0049 10.0039 11.7944 10.0039 14.0001C10.0039 16.2058 11.7934 17.9953 13.9991 17.9953C16.2049 17.9953 17.9944 16.2058 17.9944 14.0001C17.9944 11.7944 16.2049 10.0049 13.9991 10.0049ZM13.9991 16.5917C12.5681 16.5917 11.4076 15.4311 11.4076 14.0001C11.4076 12.5691 12.5681 11.4085 13.9991 11.4085C15.4301 11.4085 16.5907 12.5691 16.5907 14.0001C16.5907 15.4311 15.4301 16.5917 13.9991 16.5917Z" fill="#ffffff"/>
<path d="M19.0852 9.84703C19.0852 10.3635 18.6659 10.7798 18.1525 10.7798C17.636 10.7798 17.2197 10.3605 17.2197 9.84703C17.2197 9.33054 17.639 8.91431 18.1525 8.91431C18.6659 8.91431 19.0852 9.33358 19.0852 9.84703Z" fill="#ffffff"/>
</g>
<circle cx="14" cy="14" r="13.5" stroke="#ffffff"/>
<defs>
<clipPath id="clip0">
<rect width="15.5556" height="15.5556" fill="white" transform="translate(6.22168 6.22241)"/>
</clipPath>
</defs>
</svg>
