<svg width="35" height="35" viewBox="0 0 35 35" fill="none" xmlns="http://www.w3.org/2000/svg"><path d="M13.9141 23.9037H10.557V13.0926H13.9141V23.9037ZM12.2338 11.6179C11.1603 11.6179 10.2896 10.7287 10.2896 9.6552C10.2896 9.13955 10.4944 8.64502 10.859 8.2804C11.2236 7.91578 11.7181 7.71094 12.2338 7.71094C12.7494 7.71094 13.2439 7.91578 13.6085 8.2804C13.9731 8.64502 14.178 9.13955 14.178 9.6552C14.178 10.7287 13.3069 11.6179 12.2338 11.6179ZM26.4787 23.9037H23.1288V18.6409C23.1288 17.3867 23.1035 15.7782 21.3834 15.7782C19.638 15.7782 19.3705 17.1409 19.3705 18.5506V23.9037H16.017V13.0926H19.2368V14.5674H19.2838C19.732 13.7179 20.8268 12.8215 22.4602 12.8215C25.8577 12.8215 26.4823 15.0589 26.4823 17.965V23.9037H26.4787Z" fill="white"></path><circle cx="17.6145" cy="17.3494" r="16.9639" stroke="white" stroke-width="0.771084"></circle></svg>