<svg width="512" height="147" viewBox="0 0 512 147" fill="none" xmlns="http://www.w3.org/2000/svg">
<path d="M0 2.42578H79.1354V15.63H29.0133V64.3149H67.0989V77.5191H29.0133V144.259H0V2.42578Z" fill="white"/>
<path d="M82.459 76.8898C82.459 28.2049 99.0765 0 131.413 0C165.906 0 181.985 29.3726 181.985 75.3628C181.985 120.904 164.918 146.773 132.222 146.773C95.5734 146.684 82.459 120.634 82.459 76.8898ZM149.288 72.3088C149.288 17.7853 141.294 6.19789 132.042 6.19789C121.982 6.19789 115.784 24.7018 115.784 73.746C115.784 128.539 121.982 140.665 132.222 140.665C142.911 140.575 149.288 127.551 149.288 72.3088Z" fill="white"/>
<path d="M199.591 95.6627V2.33496H234.173V99.5251C234.173 128.449 239.114 135.904 250.342 135.904C259.414 135.904 264.714 133.389 264.714 102.22V2.33496H291.212V98.9862C291.212 131.503 276.93 146.683 245.401 146.683C213.424 146.683 199.591 131.323 199.591 95.6627Z" fill="white"/>
<path d="M335.854 45.9897H334.686V144.348H310.703V2.33496H332.98L373.94 97.549H374.748V2.33496H398.552V144.527H380.497L335.854 45.9897Z" fill="white"/>
<path d="M417.685 2.33496H462.058C496.551 2.33496 512 33.8634 512 73.9251C512 116.502 495.742 144.348 464.034 144.348H417.685V2.33496ZM456.489 137.072C477.867 137.072 482.268 119.107 482.268 70.6016C482.268 30.1806 475.172 9.61075 454.333 9.61075H444.991V137.072H456.489Z" fill="white"/>
</svg>
