<svg width="512" height="121" viewBox="0 0 512 121" fill="none" xmlns="http://www.w3.org/2000/svg">
<path fill-rule="evenodd" clip-rule="evenodd" d="M48.0324 58.8621C62.6264 55.095 66.817 45.3624 66.817 34.1138C66.817 17.3915 54.2916 7.77246 34.4944 7.77246H0V89.889H21.0349V63.9724H26.6534L35.9275 79.6603C38.9064 85.9092 45.214 89.889 52.1364 89.889H70.1274V70.2211H55.363L48.0324 58.8621ZM30.3709 46.6363H21.0349V24.3646H30.4835C40.9447 24.3646 45.6695 28.1885 45.6695 35.2752C45.6695 42.1377 40.3816 46.6363 30.3709 46.6363Z" fill="white"/>
<path fill-rule="evenodd" clip-rule="evenodd" d="M297.836 89.5517H318.309V26.5596H297.836V89.5517Z" fill="white"/>
<path fill-rule="evenodd" clip-rule="evenodd" d="M438.571 44.4252C446.664 44.7467 449.82 49.15 449.82 59.1617V89.5512H470.18V49.9549C470.18 34.9942 461.897 26.745 448.019 25.3203C434.921 23.975 426.535 32.528 426.535 32.528V26.5581H406.288V89.5512H426.648L426.625 59.1246C426.625 59.1246 425.498 43.9065 438.571 44.4252Z" fill="white"/>
<path fill-rule="evenodd" clip-rule="evenodd" d="M498.773 25.3192V6.84863H479.986L479.815 70.5393C479.785 80.9138 488.099 89.3467 498.43 89.5325V89.5501H512V70.2202H498.773V43.6193H512V25.3192H498.773Z" fill="white"/>
<path fill-rule="evenodd" clip-rule="evenodd" d="M297.836 17.7487H318.309V0.0107422H297.836V17.7487Z" fill="white"/>
<path fill-rule="evenodd" clip-rule="evenodd" d="M218.502 26.8945H197.82L183.497 63.8914L168.397 26.8945H146.201L171.283 88.0683C172.31 90.5686 172.273 93.379 171.182 95.8514C169.593 99.4573 166.023 101.784 162.083 101.784H146.789V120.341H164.255C174.81 120.341 184.334 114.005 188.409 104.268L218.502 26.8945Z" fill="white"/>
<path fill-rule="evenodd" clip-rule="evenodd" d="M398.482 69.9727H391.826C391.815 69.9727 391.805 69.9623 391.805 69.9498C391.805 69.9498 391.795 26.6475 391.784 26.6475H371.422V32.6111C371.422 32.6111 367.146 26.4854 354.885 26.4854C339.35 26.4854 326.758 40.5089 326.758 57.8067C326.758 75.1056 338.134 89.1281 357.235 89.1281C364.146 89.1281 370.145 86.072 374.263 81.898C374.271 81.8886 374.287 81.8915 374.295 81.9021C377.573 86.6351 383.026 89.6406 389.061 89.6406H398.482C398.493 89.6406 398.503 89.6303 398.503 89.618V69.9953C398.503 69.983 398.493 69.9727 398.482 69.9727ZM360.1 71.3892C353.271 71.3892 347.734 65.3088 347.734 57.8067C347.734 50.3057 353.271 44.2243 360.1 44.2243C366.929 44.2243 372.466 50.3057 372.466 57.8067C372.466 65.3088 366.929 71.3892 360.1 71.3892Z" fill="white"/>
<path fill-rule="evenodd" clip-rule="evenodd" d="M289.88 69.9735H283.227C283.213 69.9735 283.203 69.9631 283.203 69.9506V0.0226394C283.203 0.00936802 262.822 0 262.822 0V32.6118C262.822 32.6118 258.544 26.4861 246.284 26.4861C230.748 26.4861 218.156 40.5097 218.156 57.8075C218.156 75.1063 229.533 89.1289 248.634 89.1289C255.544 89.1289 261.544 86.0728 265.662 81.8987C265.672 81.8894 265.687 81.8923 265.693 81.9028C268.972 86.6358 274.427 89.6414 280.459 89.6414H289.88C289.892 89.6414 289.902 89.6311 289.902 89.6188V69.9961C289.902 69.9838 289.892 69.9735 289.88 69.9735ZM251.499 71.39C244.67 71.39 239.133 65.3095 239.133 57.8075C239.133 50.3065 244.67 44.2251 251.499 44.2251C258.329 44.2251 263.864 50.3065 263.864 57.8075C263.864 65.3095 258.329 71.39 251.499 71.39Z" fill="white"/>
<path fill-rule="evenodd" clip-rule="evenodd" d="M145.828 69.9727H139.175C139.162 69.9727 139.152 69.9623 139.152 69.9498C139.152 69.9498 139.143 26.6475 139.13 26.6475H118.77V32.6111C118.77 32.6111 114.493 26.4854 102.233 26.4854C86.6973 26.4854 74.1055 40.5089 74.1055 57.8067C74.1055 75.1056 85.481 89.1281 104.582 89.1281C111.493 89.1281 117.493 86.072 121.61 81.898C121.619 81.8886 121.635 81.8915 121.642 81.9021C124.921 86.6351 130.375 89.6406 136.409 89.6406H145.828C145.841 89.6406 145.851 89.6303 145.851 89.618V69.9953C145.851 69.983 145.841 69.9727 145.828 69.9727ZM107.448 71.3892C100.619 71.3892 95.0816 65.3088 95.0816 57.8067C95.0816 50.3057 100.619 44.2243 107.448 44.2243C114.277 44.2243 119.813 50.3057 119.813 57.8067C119.813 65.3088 114.277 71.3892 107.448 71.3892Z" fill="white"/>
</svg>
