<svg width="519" height="150" viewBox="0 0 519 150" fill="none" xmlns="http://www.w3.org/2000/svg">
<path fill-rule="evenodd" clip-rule="evenodd" d="M7 52.7666V97.7697H51.9107V142.773H96.8214V52.7666H7Z" stroke="white" stroke-width="12.7922"/>
<path fill-rule="evenodd" clip-rule="evenodd" d="M96.8203 52.7658H142.49V7H96.8203V52.7658Z" stroke="white" stroke-width="12.7922"/>
<path fill-rule="evenodd" clip-rule="evenodd" d="M506.446 124.591H519V60.0312H506.446V124.591ZM468.39 111.235C468.39 114.775 471.368 116.013 475.644 116.013C483.549 116.013 486.619 112.562 486.619 109.112V100.977H486.431C485.873 101.951 485.503 103.1 475.925 105.401C469.041 106.989 468.39 109.29 468.39 111.235V111.235ZM488.108 120.081H487.92C487.92 120.081 484.48 125.915 474.528 125.915C461.79 125.915 456.765 119.107 456.765 112.031C456.765 103.631 461.694 100.181 473.505 97.437C485.226 94.6965 486.25 93.7258 486.25 91.0712C486.25 88.4199 483.737 86.1185 477.876 86.1185C470.53 86.1185 468.671 90.1896 467.462 93.8117L457.418 89.833C459.558 82.6682 465.881 76.3948 477.691 76.3948C488.759 76.3948 498.245 81.4333 498.245 94.8748V124.591H488.108V120.081V120.081ZM408.892 77.7188H420.515V82.2291H420.703C423.212 79.132 428.234 76.3915 433.722 76.3915C444.601 76.3915 451.205 82.8465 451.205 93.9008V124.591H439.117V96.7304C439.117 90.6288 437.07 87.0034 430.466 87.0034C424.516 87.0034 420.98 90.5429 420.98 95.9347V124.591H408.892V77.7188V77.7188ZM388.22 124.591H400.308V77.7188H388.22V124.591ZM388.22 70.9106H400.308V60.0312H388.22V70.9106V70.9106ZM311.794 77.7188H322.861V82.2291H323.046C325.186 79.0461 329.65 76.3915 334.949 76.3915C340.252 76.3915 345.181 79.0461 347.506 82.5823H347.691C350.108 79.132 354.852 76.3915 360.525 76.3915C372.52 76.3915 379.682 83.0248 379.682 92.4877V124.591H368.614V94.8748C368.614 90.6288 366.29 87.0034 360.059 87.0034C354.387 87.0034 351.597 90.1896 351.597 94.2574V124.591H340.529V94.8748C340.529 90.6288 337.739 87.0034 331.978 87.0034C326.209 87.0034 323.512 90.1896 323.512 94.2574V124.591H311.794V77.7188ZM281.913 77.7188H293.353V82.6715H293.542C295.401 79.2211 299.307 76.834 303.678 76.834C305.164 76.834 306.65 77.0981 308.139 77.7188L306.28 88.8623C305.055 88.4215 303.768 88.1818 302.466 88.1524C297.259 88.1524 294.004 91.3386 294.004 98.8535V124.591H281.916V77.7188H281.913ZM264.258 96.0205C263.7 90.0972 259.887 86.4718 253.379 86.4718C247.238 86.4718 243.335 90.8038 242.869 96.0205H264.258ZM274.302 115.478C270.208 121.137 264.166 125.911 253.937 125.911C240.357 125.911 230.593 116.363 230.593 101.148C230.593 85.9402 240.545 76.3882 253.376 76.3882C266.213 76.3882 275.976 85.9402 275.976 101.152V104.599H242.866C243.239 111.853 247.145 115.742 253.745 115.742C260.072 115.742 263.42 111.674 265.837 108.402L274.299 115.478H274.302ZM207.904 73.7369H188.836V62.6826H239.518V73.7369H220.454V124.584H207.9V73.7369H207.904Z" fill="white"/>
</svg>
