<svg width="512" height="98" viewBox="0 0 512 98" fill="none" xmlns="http://www.w3.org/2000/svg">
<path d="M512 24.3329V35.869H501.85V74.7638H489.621V35.869H478.778V24.3329H489.621V9.39276H501.85V24.3329H512ZM448.141 23.8917C460.245 23.8917 471.403 31.1411 471.403 44.9466V74.7638H459.173V50.62C459.173 38.8318 454.887 34.8604 448.141 34.8604C439.568 34.8604 434.525 41.3534 434.21 49.4853V74.7008H421.98V24.2699H433.516V29.8803C436.164 25.9089 441.018 23.8917 448.141 23.8917ZM366.948 49.5484C366.948 57.4913 373.125 64.1734 381.762 64.1734C390.272 64.1734 396.387 57.4913 396.387 49.5484C396.387 41.6055 390.335 34.9234 381.762 34.9234C373.125 34.8604 366.948 41.5425 366.948 49.5484ZM354.781 49.5484C354.781 35.1125 365.309 23.3243 379.681 23.3243C388.318 23.3243 395.756 28.1152 398.341 33.9148V24.3329H409.94V74.7638H398.341V64.8037C395.756 71.801 388.318 75.7725 379.681 75.7725C365.309 75.7094 354.781 63.9842 354.781 49.5484ZM346.019 40.1556C342.047 36.3733 337.887 34.8604 333.222 34.8604C325.783 34.8604 318.345 40.723 318.345 49.4853C318.345 58.2477 325.783 64.1103 333.222 64.1103C337.887 64.1103 342.047 62.5343 346.019 58.752V70.5403C342.615 73.5031 337.698 75.7094 331.205 75.7094C316.328 75.7094 305.359 63.7321 305.359 49.4853C305.359 35.3647 316.265 23.2613 331.205 23.2613C337.635 23.2613 342.615 25.4676 346.019 28.4304V40.1556ZM294.642 24.3329V74.7638H282.413V24.3329H294.642V24.3329ZM270.751 0V74.7638H258.521V0H270.751ZM208.027 49.5484C208.027 57.4913 214.016 64.1734 222.652 64.1734C231.162 64.1734 237.34 57.4913 237.34 49.5484C237.34 41.6055 231.162 34.9234 222.652 34.9234C214.016 34.8604 208.027 41.5425 208.027 49.5484ZM194.474 97.6469V24.3329H206.01V33.9148C208.027 27.9261 216.033 23.3243 224.669 23.3243C239.042 23.3243 249.696 35.1125 249.696 49.5484C249.696 63.9842 239.042 75.7725 224.669 75.7725C216.033 75.7725 209.351 71.1706 206.703 65.4341V97.7099H194.474V97.6469ZM158.983 34.167C151.545 34.167 146.375 39.0209 146.06 44.8205H171.906C171.528 39.2731 166.611 34.167 158.983 34.167ZM184.135 50.1157V53.3307H146.123C146.438 59.5085 151.103 64.8668 159.929 64.8668C166.296 64.8668 170.33 61.4627 172.347 57.9956H183.253C182.244 65.7493 173.734 75.7094 159.803 75.7094C144.295 75.7094 133.894 63.9212 133.894 49.2332C133.894 35.1756 143.854 23.3243 159.046 23.3243C174.491 23.3243 184.135 35.6799 184.135 50.1157ZM123.618 23.8917C126.518 23.8917 128.788 24.396 129.859 25.4676V35.806C128.851 35.2386 125.068 34.7973 123.114 34.7973C116.558 34.7973 112.965 41.5425 112.965 52.259V74.7008H100.735V24.2699H112.271V29.8803C115.486 26.035 118.638 23.8917 123.618 23.8917Z" fill="white"/>
<path d="M288.969 2.52148L296.66 10.2122C296.723 10.2752 296.723 10.3383 296.66 10.4013L288.969 18.092C288.906 18.1551 288.843 18.1551 288.78 18.092L281.089 10.4013C281.026 10.3383 281.026 10.2752 281.089 10.2122L288.78 2.52148C288.843 2.52148 288.906 2.52148 288.969 2.52148Z" fill="white"/>
<path fill-rule="evenodd" clip-rule="evenodd" d="M59.9498 34.4817L47.8463 47.3415H24.9633V74.9525L12.4817 87.4341L0 74.9525V34.4817C0 27.6104 5.42132 22 12.0404 22H47.8463L59.9498 34.4817Z" fill="white"/>
<path fill-rule="evenodd" clip-rule="evenodd" d="M70.6665 23.8909L62.1563 32.6532L48.7921 19.163H12.4188C10.7798 19.163 9.2038 19.4151 7.75391 19.9194C9.39291 14.309 14.9403 10.1484 20.8029 10.1484H57.0501L70.6665 23.8909Z" fill="white"/>
<path fill-rule="evenodd" clip-rule="evenodd" d="M34.7346 49.8633V65.1186L27.7373 72.0529V49.8633H34.7346Z" fill="white"/>
</svg>
