<svg width="368" height="146" viewBox="0 0 368 146" fill="none" xmlns="http://www.w3.org/2000/svg">
<path d="M43.3343 143.775C24.9054 143.775 8.46414 134.442 8.46414 99.7427V62.016C8.46414 52.4725 0 50.3005 0 45.5353V44.8771C0.062989 43.725 0.535151 42.6332 1.33151 41.7982C2.12786 40.9632 3.1961 40.44 4.34396 40.3225L29.0256 36.2024C34.4358 35.5573 37.6872 36.4261 37.6872 40.1514L37.2133 109.076C36.9895 124.872 41.1623 131.19 50.3768 131.454C69.2533 131.875 85.9183 107.759 85.9183 83.7358C85.9183 63.7799 66.6206 64.8725 66.6206 48.3918C66.6206 41.0202 71.3989 35.373 80.9293 35.373C92.8555 35.373 102.833 44.9166 102.833 69.2033C103.031 114.275 77.1646 143.775 43.3343 143.775Z" fill="white"/>
<path d="M364.247 60.7796L345.555 57.5809C340.934 56.6858 337.907 58.6471 337.907 62.0302V65.5975C332.391 60.0688 324.743 56.5146 314.581 56.5146C291.795 56.5146 272.576 74.496 272.576 100.836C272.576 129.506 292.69 145.592 314.41 145.592C323.624 145.592 332.391 142.209 337.907 135.627V139.892C337.906 140.423 338.013 140.949 338.221 141.438C338.428 141.927 338.732 142.369 339.114 142.737C339.496 143.106 339.949 143.394 340.445 143.583C340.941 143.773 341.47 143.861 342.001 143.841H363.892C366.208 143.841 367.459 142.762 367.459 140.814V140.274C367.459 136.009 360.509 134.219 360.509 126.742V80.0115C360.509 71.2841 367.985 69.1516 367.985 65.7686V65.2421C368.073 64.1563 367.73 63.0795 367.031 62.2445C366.331 61.4095 365.331 60.8833 364.247 60.7796V60.7796ZM335.419 118.818C335.419 131.455 327.521 137.865 320.281 137.865C305.511 137.339 297.31 109.919 298.021 90.3317C298.39 73.7852 305.143 64.1627 316.003 64.1627C326.533 64.1627 335.419 75.0226 335.419 87.4884V118.818Z" fill="white"/>
<path d="M134.482 5.02777L116.974 22.5361L134.482 40.0445L151.99 22.5361L134.482 5.02777Z" fill="white"/>
<path d="M116.709 140.773V140.049C116.709 135.283 123.962 133.756 123.962 125.569V82.4186C123.962 74.0203 116.709 71.8878 116.709 67.7281V67.1621C116.709 65.4377 118.236 64.5294 120.658 63.2131L144.497 51.3659C149.262 49.0886 152.316 51.7476 152.316 55.1833V125.569C152.316 133.77 160.333 135.296 160.333 140.049V140.812C160.333 142.721 158.608 144.05 155.936 144.05H120.908C118.42 143.998 116.709 142.681 116.709 140.773Z" fill="white"/>
<path d="M170.297 140.774V140.05C170.297 135.285 177.734 133.758 177.734 125.755V55.5142C177.734 46.9316 170.297 44.9834 170.297 41.0343V40.2709C170.297 38.3621 171.824 37.4012 174.114 36.4534L198.138 24.6063C203.1 22.1184 205.957 24.7906 205.957 28.0288V125.702C205.957 133.706 214.158 135.233 214.158 139.998V140.761C214.158 142.67 212.249 143.999 209.774 143.999H174.68C172.008 143.999 170.297 142.683 170.297 140.774Z" fill="white"/>
<path d="M223.688 140.774V140.05C223.688 135.285 231.126 133.758 231.126 125.754V31.8853C231.126 23.3027 223.688 21.3545 223.688 17.4054V16.642C223.688 14.7332 225.215 13.7723 227.506 12.8245L251.542 0.97737C256.492 -1.51054 259.362 1.16165 259.362 4.39987V125.702C259.362 133.705 267.549 135.232 267.549 139.997V140.761C267.549 142.669 265.654 143.999 263.166 143.999H228.085C225.452 143.999 223.688 142.683 223.688 140.774Z" fill="white"/>
</svg>
