<svg width="721" height="141" viewBox="0 0 721 141" fill="none" xmlns="http://www.w3.org/2000/svg">
<path d="M46.4728 111.336C58.9345 111.336 69.7446 108.408 78.9031 102.552C87.9866 96.7721 94.9681 88.8147 99.7726 78.8303C104.577 68.846 106.979 57.8107 106.979 45.5743C107.205 18.3239 89.5631 -0.293504 61.7121 0.00677659C23.2011 -0.518714 0.605019 29.5844 0.905299 67.0443C0.905299 95.7211 18.3216 111.336 46.4728 111.336ZM48.0493 95.7211C38.5905 95.7211 31.609 93.0937 27.0297 87.7637C23.2011 83.785 21.2493 77.2539 21.2493 68.3205C21.2493 59.5373 22.5255 51.0544 25.0779 42.9469C27.6302 34.9144 31.3087 28.6085 36.1132 24.1043C42.0437 18.3989 50.2263 15.5463 60.6611 15.5463C69.8947 15.5463 76.5759 18.2488 80.7048 23.7289C84.7586 28.3082 86.7855 35.1396 86.7855 44.223C86.7855 52.5558 85.5843 60.5133 83.107 68.0953C80.6297 75.7525 77.0264 81.9082 72.2219 86.6376C66.1412 92.7183 58.1087 95.7211 48.0493 95.7211Z" fill="white"/>
<path d="M166.435 30.7108C156.15 30.7108 147.517 35.7405 142.187 43.773L144.139 32.5876H126.197L107.129 140.238H125.146L132.428 99.0246C136.707 106.756 145.49 111.336 155.4 111.336C180.848 111.861 195.787 88.1394 195.562 64.4924C195.787 43.9232 182.65 30.4856 166.435 30.7108ZM168.912 88.9652C165.008 94.8957 159.678 97.8235 151.946 97.8235C141.211 97.8235 136.106 91.1422 136.106 80.5574C136.106 75.5277 136.782 70.6481 138.058 65.7686C139.335 60.889 140.986 56.8352 143.163 53.5321C147.142 47.3013 152.922 44.1484 160.354 44.1484C171.389 44.1484 175.969 50.5293 175.969 62.6156C175.969 72.8251 173.341 82.4341 168.912 88.9652Z" fill="white"/>
<path d="M279.791 76.1274C280.391 72.5241 280.691 69.0708 280.691 65.7678C280.691 57.0596 278.74 49.7028 274.836 43.6221C269.731 35.4394 259.747 30.71 247.811 30.71C235.8 30.71 225.965 34.3134 218.308 41.5201C209.825 49.5526 205.396 61.9392 205.396 76.4277C205.396 86.0367 208.024 93.9941 213.354 100.225C219.359 107.132 228.743 111.336 239.478 111.336C259.897 111.336 271.983 103.003 277.764 85.6613L259.822 83.3341C257.044 92.9431 250.889 97.5975 240.604 97.5975C228.968 97.5975 223.188 90.3907 223.188 79.2053C223.188 77.854 223.263 76.8031 223.338 76.1274H279.791ZM246.91 44.4479C253.666 44.4479 258.245 46.6249 260.723 50.9039C262.374 53.8316 263.201 57.3599 263.201 61.4888V62.3896H225.365C226.416 57.435 228.217 53.5313 230.77 50.6036C234.148 46.4747 239.553 44.4479 246.91 44.4479Z" fill="white"/>
<path d="M361.467 39.3431C357.488 33.863 350.356 30.71 341.874 30.71C330.463 30.71 322.656 35.1392 317.626 44.6731L319.803 32.5868H302.011L288.349 109.459H306.365L313.572 68.4703C316.425 52.0299 325.208 45.0484 334.141 45.0484C339.021 45.0484 342.624 46.0243 344.951 49.0271C346.528 50.979 347.354 53.6815 347.354 57.1347C347.354 59.2367 347.053 61.8641 346.453 64.942L338.57 109.459H357.038L364.77 65.5425C365.446 61.4137 365.821 57.8103 365.821 54.6574C365.821 48.2014 364.395 43.0966 361.467 39.3431Z" fill="white"/>
<path d="M408.16 111.336C417.92 111.336 425.952 109.384 432.258 105.48C438.564 101.577 441.717 95.2703 441.717 86.5622C441.717 81.2322 440.366 77.0283 437.663 73.8753C434.885 70.7224 431.582 68.3952 427.754 66.8187C423.85 65.3173 418.52 63.6658 411.689 61.789C403.206 59.7621 398.927 57.8854 398.927 53.156C398.927 47.2254 404.707 43.8473 412.815 43.8473C422.424 43.8473 427.904 48.7269 428.279 58.4109L444.945 55.0327C443.969 46.7 440.666 40.5442 434.885 36.5655C429.105 32.6619 421.823 30.71 412.965 30.71C395.023 30.71 381.586 39.193 381.586 54.7325C381.586 59.1616 382.637 62.765 384.664 65.5425C388.717 71.1728 394.798 73.7252 404.782 76.728C405.458 76.9532 407.034 77.4036 409.662 78.1543C413.04 79.0552 415.667 79.8809 417.544 80.5566C421.298 81.9829 424 84.235 424 87.9134C424 94.5196 418.67 98.198 408.761 98.198C403.581 98.198 399.377 96.7717 396.074 93.9941C392.696 91.2165 390.969 87.3129 390.819 82.2832L373.853 84.6854C374.229 102.477 389.768 111.411 408.16 111.336Z" fill="white"/>
<path d="M479.477 110.21C482.555 110.21 485.408 109.984 488.035 109.459L490.437 93.7695C488.185 94.1448 486.233 94.37 484.507 94.37C479.177 94.37 476.549 92.7936 476.549 89.1902C476.549 88.5896 476.624 88.0642 476.699 87.6888L483.831 47.151H499.22L501.848 32.5874H486.308L490.137 11.1924H472.27L468.442 32.5874H457.557L454.929 47.151H465.889L458.833 87.3135C458.532 89.1151 458.382 90.8418 458.382 92.4933C458.382 103.904 466.19 110.21 479.477 110.21Z" fill="white"/>
<path d="M536.605 111.336C563.255 111.711 581.722 90.8413 581.422 64.6418C581.647 44.9734 567.609 30.4849 547.566 30.7101C520.39 30.3348 502.448 51.2043 502.749 78.3046C502.749 98.4984 516.111 111.336 536.605 111.336ZM537.957 97.8978C526.621 97.8978 521.591 92.5679 521.591 80.8569C521.591 69.9718 524.219 59.462 529.098 52.4805C533.002 46.9253 538.782 44.1477 546.44 44.1477C557.325 44.1477 562.429 49.853 562.429 61.2637C562.429 72.374 559.802 82.8838 554.772 89.7903C550.944 95.1953 545.313 97.8978 537.957 97.8978Z" fill="white"/>
<path d="M644.706 30.71C632.094 30.71 621.96 36.1151 617.681 47.3005L620.308 32.5868H602.292L588.629 109.459H606.871L612.952 75.3017C614.678 65.1672 617.981 57.9605 622.711 53.6064C627.44 49.3274 633.296 47.1504 640.277 47.1504C641.779 47.1504 643.205 47.3005 644.556 47.5257L648.009 30.71H644.706Z" fill="white"/>
<path d="M720.002 76.1274C720.602 72.5241 720.902 69.0708 720.902 65.7678C720.902 57.0596 718.951 49.7028 715.047 43.6221C709.942 35.4394 699.958 30.71 688.022 30.71C676.01 30.71 666.176 34.3134 658.519 41.5201C650.036 49.5526 645.607 61.9392 645.607 76.4277C645.607 86.0367 648.235 93.9941 653.565 100.225C659.57 107.132 668.954 111.336 679.689 111.336C700.108 111.336 712.194 103.003 717.975 85.6613L700.033 83.3341C697.255 92.9431 691.1 97.5975 680.815 97.5975C669.179 97.5975 663.399 90.3907 663.399 79.2053C663.399 77.854 663.474 76.8031 663.549 76.1274H720.002ZM687.121 44.4479C693.877 44.4479 698.456 46.6249 700.934 50.9039C702.585 53.8316 703.411 57.3599 703.411 61.4888V62.3896H665.576C666.627 57.435 668.428 53.5313 670.981 50.6036C674.359 46.4747 679.764 44.4479 687.121 44.4479Z" fill="white"/>
</svg>
