<svg width="618" height="95" viewBox="0 0 618 95" fill="none" xmlns="http://www.w3.org/2000/svg">
<g clip-path="url(#clip0)">
<path d="M131.336 60.1464C131.296 62.0838 130.507 63.9281 129.141 65.2839C127.774 66.6396 125.937 67.3989 124.023 67.3989C122.11 67.3989 120.273 66.6396 118.906 65.2839C117.539 63.9281 116.751 62.0838 116.711 60.1464V2.79785H84.5586V60.5274C84.5586 65.637 85.4418 70.2992 87.2082 74.5141C88.9315 78.6718 91.5856 82.3666 94.9609 85.3065C98.3651 88.2888 102.509 90.6083 107.391 92.2651C112.274 93.9219 117.822 94.7514 124.035 94.7536C130.254 94.7536 135.802 93.9241 140.679 92.2651C145.555 90.6061 149.698 88.2866 153.109 85.3065C156.485 82.3667 159.14 78.672 160.865 74.5141C162.631 70.2992 163.513 65.637 163.511 60.5274V2.79785H131.336V60.1464Z" fill="white"/>
<path d="M169.119 92.2055H200.012V36.6463L214.637 92.2055H238.216L251.202 36.6463V92.2055H282.095V2.79785H240.234L226.237 56.1866L212.243 2.79785H169.119V92.2055Z" fill="white"/>
<path d="M360.154 13.017C357.091 9.81371 353.419 7.27192 349.359 5.54483C345.157 3.71131 340.45 2.79565 335.238 2.79786H287.597V92.2055H319.749V71.3861H335.258C340.467 71.3861 345.175 70.4705 349.379 68.6391C353.397 66.9399 357.033 64.4341 360.069 61.2729C363.105 58.1117 365.477 54.3604 367.043 50.2453C368.649 46.0741 369.462 41.6335 369.441 37.1566C369.452 32.6562 368.632 28.1935 367.024 23.9983C365.477 19.9117 363.142 16.1784 360.154 13.017V13.017ZM334.116 44.1649C332.439 46.1354 330.214 47.1206 327.443 47.1206H319.749V27.1926H327.567C330.341 27.1926 332.547 28.1723 334.185 30.1318C335.824 32.0903 336.699 34.5892 336.644 37.1566C336.698 39.7338 335.798 42.2381 334.122 44.1781L334.116 44.1649Z" fill="white"/>
<path d="M515.534 60.1464C515.494 62.0838 514.706 63.9281 513.339 65.2839C511.972 66.6396 510.135 67.3989 508.222 67.3989C506.309 67.3989 504.472 66.6396 503.105 65.2839C501.738 63.9281 500.949 62.0838 500.909 60.1464V2.79785H468.757V60.5274C468.757 65.637 469.639 70.2992 471.403 74.5141C473.128 78.672 475.783 82.3667 479.159 85.3065C482.565 88.2888 486.709 90.6083 491.59 92.2651C496.47 93.9219 502.017 94.7514 508.23 94.7536C514.452 94.7536 520 93.9241 524.874 92.2651C529.748 90.6061 533.891 88.2866 537.304 85.3065C540.68 82.3667 543.335 78.672 545.06 74.5141C546.822 70.2992 547.704 65.637 547.706 60.5274V2.79785H515.534V60.1464Z" fill="white"/>
<path d="M553.315 2.79785V30.2577H569.58V92.2055H601.732V30.2577H617.996V2.79785H553.315Z" fill="white"/>
<path d="M418.806 29.6826C422.445 29.6842 425.994 30.8288 428.964 32.9587C431.935 35.0885 434.18 38.0989 435.391 41.5751H465.263C463.776 29.602 457.839 18.6532 448.663 10.9577C439.487 3.26225 427.76 -0.601344 415.87 0.153513C403.981 0.90837 392.822 6.22492 384.666 15.0208C376.51 23.8167 371.97 35.4306 371.97 47.4981C371.97 59.5657 376.51 71.1796 384.666 79.9755C392.822 88.7714 403.981 94.0879 415.87 94.8428C427.76 95.5976 439.487 91.734 448.663 84.0386C457.839 76.3431 463.776 65.3943 465.263 53.4212H435.391C434.319 56.5028 432.431 59.2265 429.934 61.2944C427.437 63.3623 424.426 64.6948 421.231 65.1462C418.037 65.5976 414.781 65.1505 411.821 63.8537C408.86 62.557 406.309 60.4606 404.445 57.7937C402.582 55.1269 401.478 51.9924 401.255 48.7329C401.031 45.4734 401.697 42.2145 403.18 39.3126C404.662 36.4106 406.903 33.9774 409.658 32.279C412.414 30.5806 415.577 29.6823 418.803 29.6826H418.806Z" fill="white"/>
<path d="M46.7775 2.79785V60.1464C46.7786 61.6114 46.3505 63.0439 45.5474 64.2624C44.7442 65.4808 43.6023 66.4305 42.266 66.9911C40.9297 67.5517 39.4593 67.698 38.0409 67.4115C36.6225 67.1251 35.3199 66.4187 34.2981 65.3818C33.6053 64.7048 33.0573 63.8906 32.6881 62.99C32.319 62.0893 32.1366 61.1214 32.1522 60.1464V47.5017H0V60.5274C0 65.637 0.883212 70.2992 2.64964 74.5141C4.37287 78.6718 7.02698 82.3666 10.4023 85.3065C13.8065 88.2888 17.9499 90.6083 22.8327 92.2651C27.7154 93.9219 33.2633 94.7514 39.4763 94.7536C45.6937 94.7536 51.2416 93.9241 56.12 92.2651C60.9983 90.6061 65.1418 88.2866 68.5504 85.3065C71.9266 82.3667 74.5818 78.672 76.3063 74.5141C78.0705 70.2992 78.9526 65.637 78.9526 60.5274V2.79785H46.7775Z" fill="white"/>
</g>
<defs>
<clipPath id="clip0">
<rect width="618" height="94.8684" fill="white" transform="translate(0 0.0654297)"/>
</clipPath>
</defs>
</svg>
