<svg width="457" height="110" viewBox="0 0 457 110" fill="none" xmlns="http://www.w3.org/2000/svg">
<path fill-rule="evenodd" clip-rule="evenodd" d="M415.852 0H403.49V79.936H415.852V55.0494C417.82 55.2882 419.806 55.3383 421.779 55.2003L439.963 79.9407H456.002L434.911 51.2465C436.686 50.239 438.359 49.0555 439.901 47.7105C443.463 44.604 446.231 40.7232 447.981 36.38C449.732 32.0367 450.417 27.3521 449.981 22.7027L437.831 23.7929C438.092 26.5825 437.681 29.3933 436.631 31.9992C435.58 34.6052 433.92 36.9337 431.783 38.7976C429.646 40.6615 427.091 42.0088 424.325 42.7312C421.559 43.4536 418.659 43.5311 415.856 42.9573L415.852 42.9785V0ZM57.6541 27.4085C57.6541 43.2825 45.7498 54.9311 29.644 54.9311H13.3048V79.9412H0V0.000217014H29.644C45.7498 0.000217014 57.6541 11.6488 57.6541 27.4085ZM13.3048 13.0192V41.9121H29.644C37.8136 41.9121 44.3493 35.8594 44.3493 27.4085C44.3493 18.9576 37.8136 13.0192 29.644 13.0192H13.3048ZM78.3718 0.000217014V79.9412H65.7672V0.000217014H78.3718ZM125.994 41.4553C125.994 42.9399 125.061 43.8535 123.31 43.9677L106.621 45.4523C97.2841 46.2518 88.2975 51.3908 88.2975 62.6968C88.2975 73.2033 96.7005 81.0832 109.305 81.0832C117.708 81.0832 122.61 77.6571 125.994 73.6601V79.9412H138.599V43.1683C138.599 29.6926 131.013 21.4701 114.207 21.4701C99.9684 21.4701 92.9658 27.1801 89.698 36.202L101.019 41.9121C103.119 34.9458 107.905 32.8902 114.907 32.8902C121.676 32.8902 125.994 35.5168 125.994 39.2855V41.4553ZM125.994 54.2459V56.5299C125.994 63.1536 119.109 69.2062 110.939 69.2062C104.637 69.2062 101.135 66.6938 101.135 62.6968C101.135 59.7275 103.47 56.8725 108.605 56.3015L125.994 54.2459ZM220.418 28.4363C224.503 24.2109 230.805 21.4701 237.574 21.4701C254.731 21.4701 266.518 33.1186 266.518 51.3908C266.518 69.663 254.264 81.3116 237.108 81.3116C230.922 81.3116 224.62 78.6849 220.418 74.2311V79.9412H208.047V0.000217014H220.418V28.4363ZM219.835 51.3908C219.835 62.3541 226.02 69.4346 236.641 69.4346C246.911 69.4346 253.447 62.0115 253.447 51.3908C253.447 40.7701 246.911 33.347 236.641 33.347C226.02 33.347 219.835 40.4275 219.835 51.3908ZM301.599 21.4701C284.676 21.4701 271.138 34.8316 271.138 51.3908C271.138 67.95 284.676 81.3116 301.599 81.3116C318.522 81.3116 332.06 67.95 332.06 51.3908C332.06 34.8316 318.522 21.4701 301.599 21.4701ZM301.599 69.4346C291.446 69.4346 284.21 61.3263 284.21 51.3908C284.21 41.4553 291.446 33.347 301.599 33.347C311.753 33.347 318.989 41.4553 318.989 51.3908C318.989 61.3263 311.753 69.4346 301.599 69.4346ZM336.732 51.3908C336.732 34.8316 350.27 21.4701 367.193 21.4701C384.116 21.4701 397.654 34.8316 397.654 51.3908C397.654 67.95 384.116 81.3116 367.193 81.3116C350.27 81.3116 336.732 67.95 336.732 51.3908ZM349.804 51.3908C349.804 61.3263 357.04 69.4346 367.193 69.4346C377.347 69.4346 384.583 61.3263 384.583 51.3908C384.583 41.4553 377.347 33.347 367.193 33.347C357.04 33.347 349.804 41.4553 349.804 51.3908ZM183.069 89.4457C184.919 86.6021 185.903 83.3008 185.903 79.9295H185.907V73.5565C182.056 77.8962 176.687 81.3222 169.451 81.3222C153.696 81.3222 147.86 70.5873 147.86 56.1979V22.8511H160.465V56.1979C160.465 64.192 163.266 69.4453 171.552 69.4453C181.706 69.4453 185.907 61.2228 185.907 50.4878V22.8511H198.278V79.9295H198.303C198.303 85.6101 196.646 91.1728 193.528 95.9641C190.409 100.755 185.958 104.576 180.697 106.978C175.436 109.38 169.584 110.263 163.828 109.523C158.072 108.784 152.651 106.452 148.202 102.803L156.169 93.5043C158.809 95.6702 162.026 97.0539 165.442 97.4929C168.858 97.9318 172.332 97.4078 175.454 95.9823C178.576 94.5569 181.218 92.2892 183.069 89.4457Z" fill="white"/>
</svg>
