<svg width="512" height="81" viewBox="0 0 512 81" fill="none" xmlns="http://www.w3.org/2000/svg">
<path d="M282.769 72.7747C278.856 77.6874 273.277 80.9348 266.949 80.9348C257.706 80.9348 250.712 75.6058 250.712 65.8637C250.712 58.2033 257.873 53.1241 263.868 49.8767C260.954 46.0465 257.207 42.133 257.207 36.8873C257.207 30.3093 262.536 25.9795 269.114 25.9795C275.692 25.9795 281.021 30.3093 281.021 36.8873C281.021 43.6318 275.858 47.462 270.446 50.7926L282.186 64.9478C283.435 62.2833 283.768 59.9518 283.768 55.8718H288.514C288.514 58.8694 287.848 64.1984 285.35 68.778L294.759 80.1021H288.848L282.769 72.7747ZM266.366 52.9575C261.203 55.7053 255.375 59.7853 255.375 66.28C255.375 72.6082 260.954 76.938 267.032 76.938C272.361 76.938 276.774 73.5241 279.772 69.2776L266.366 52.9575ZM261.953 36.8873C261.953 40.6342 265.616 44.8808 267.948 47.7118C271.695 45.3804 276.274 42.0497 276.274 36.8873C276.274 32.4742 273.027 29.9762 269.114 29.9762C265.2 29.9762 261.953 32.4742 261.953 36.8873Z" fill="white"/>
<path d="M87.4283 13.6556C87.4283 18.7348 83.265 22.898 78.1858 22.898C73.1066 22.898 68.9434 18.7348 68.9434 13.6556C68.9434 8.57636 73.1066 4.41309 78.1858 4.41309C83.3483 4.41309 87.4283 8.4931 87.4283 13.6556Z" fill="white"/>
<path d="M191.428 70.277C191.428 66.8631 193.509 64.5317 197.673 64.5317C202.502 64.5317 203.918 66.2803 205.666 73.1913C206.249 75.606 207.665 77.0215 211.495 77.0215C216.657 77.0215 219.488 74.1905 219.488 70.0272C219.488 66.3635 215.825 63.4493 208.664 58.9529C200.837 54.1235 196.507 49.4606 196.507 42.7161C196.507 32.2247 208.164 25.8965 218.822 25.8965C230.812 25.8965 235.475 31.0589 235.475 35.8884C235.475 39.1357 233.394 40.801 229.73 40.801C225.234 40.801 223.818 38.9692 222.236 33.5569C221.57 30.8092 220.154 29.7267 217.407 29.7267C213.077 29.7267 210.162 31.9749 210.162 35.9716C210.162 39.8018 213.909 42.2165 222.319 47.4623C230.146 52.1251 233.727 57.1211 233.727 63.1162C233.727 72.8583 223.152 80.8518 209.996 80.8518C196.673 80.935 191.428 75.5228 191.428 70.277Z" fill="white"/>
<path d="M22.8148 41.7165C22.8148 37.9696 25.8123 33.8895 31.7242 33.8895C37.8026 33.8895 40.4671 37.47 40.4671 41.7165V68.2782C40.4671 72.1917 40.3005 73.4407 39.8009 74.9395C39.3846 76.1052 38.3022 76.4383 36.6368 76.8546C35.6377 77.1044 35.1381 77.3542 35.1381 78.4366C35.1381 79.186 35.4711 80.0187 36.3038 80.1852H122.733C124.232 80.1852 125.648 80.1019 125.648 78.3534C125.648 77.0211 125.148 76.9378 124.066 76.6048C121.818 76.1052 119.403 75.4391 119.236 72.5248C118.986 70.3599 118.986 45.8798 118.986 41.55C118.986 37.7198 122.317 33.8063 127.646 33.8063C132.725 33.8063 135.723 37.1369 135.723 41.6332C135.723 45.8798 135.64 63.3656 135.64 69.1941C135.64 74.0236 135.64 75.5223 131.726 76.7713C130.644 77.1044 130.227 77.2709 130.227 78.3534C130.227 80.1019 131.393 80.1852 132.892 80.1852H154.541C157.455 80.1852 158.454 79.9354 158.454 78.1036C158.454 76.9378 157.705 76.688 156.539 76.355C153.125 75.5223 152.543 74.7729 152.543 71.6089C152.543 71.6089 152.459 45.8798 152.459 41.55C152.459 37.0536 156.206 33.8063 160.952 33.8063C160.952 33.8063 168.863 33.2234 168.863 41.9663C168.863 43.7981 169.112 70.1933 169.112 70.1933C169.112 75.4391 167.697 75.7721 165.532 76.4383C164.366 76.7713 163.7 76.9378 163.7 78.0203C163.7 79.8521 165.032 80.1019 166.032 80.1019H189.929C191.428 80.0187 191.677 79.3525 191.677 78.3534C191.677 76.8546 190.928 76.6048 189.596 76.2717C186.182 75.4391 186.015 73.6905 186.015 71.8586V50.5427C186.015 36.7206 185.349 34.8887 183.934 32.474C180.187 25.8128 170.694 25.6463 169.695 25.6463C162.368 25.6463 156.789 29.0601 153.458 32.2242C151.543 34.0561 151.294 34.0561 151.127 34.0561C150.711 34.0561 150.627 33.9728 148.962 31.8079C145.798 27.4781 141.551 25.8128 136.139 25.8128C130.227 25.8128 125.564 28.061 120.319 32.8071C119.569 33.5565 119.32 33.5565 118.986 33.5565C118.487 33.5565 118.487 33.1402 118.487 32.0577V27.3948C118.487 26.7287 118.487 25.8961 117.738 25.8961C117.404 25.8961 117.238 25.8961 115.24 27.0618C109.078 30.6422 102.084 32.474 97.5872 33.39C95.6721 33.723 95.0893 33.8063 95.0893 35.1385C95.0893 35.9712 95.1725 36.6373 96.5048 36.8871C101.667 37.7198 102.084 37.8863 102.167 41.7165V71.3591C102.167 72.1084 102.25 77.0211 94.9227 77.0211C87.6786 77.0211 87.3456 72.608 87.3456 71.1925L87.2623 28.061C87.2623 26.7287 87.179 25.8961 86.2631 25.8961C86.0133 25.8961 85.8468 25.8961 84.7643 26.6454C79.6019 29.643 74.2729 31.8079 68.028 33.2234C64.7806 33.8895 64.6973 33.9728 64.6973 35.0553C64.6973 35.8879 64.9471 36.6373 66.0296 36.8871C69.0272 37.6365 70.2761 37.8863 70.2761 39.7181V72.1917C70.2761 72.7746 70.2761 77.0211 64.1145 77.0211C57.9528 77.0211 57.5365 73.3574 57.5365 72.1917V43.4651C57.5365 38.4692 57.1202 33.9728 54.2059 30.9753C50.8753 27.3948 46.4622 25.8961 41.6328 25.8961C35.1381 25.8961 29.5593 28.394 24.5633 32.5573C23.1478 33.8895 22.9813 33.8895 22.8148 33.8895C22.3152 33.8895 22.3152 33.39 22.3152 32.141L22.3984 13.7393V2.41516C22.3984 1.08291 22.3984 0.166992 21.5658 0.166992C21.316 0.166992 21.1495 0.166992 20.067 0.916382C14.9045 3.91394 9.57554 6.07885 3.33062 7.49436C0.0832655 8.16049 0 8.24375 0 9.3262C0 10.1589 0.249796 10.9082 1.33225 11.158C4.32981 11.9074 4.91267 11.9907 5.24573 13.9891C5.49553 15.4046 5.49553 22.4822 5.49553 24.7303V68.9443C5.49553 74.1901 5.49553 75.6056 1.91511 76.9378C0.749389 77.2709 0.0832651 77.4374 0.0832651 78.5199C0.0832651 80.2685 0.915921 80.2685 2.91429 80.2685H25.1462C27.0613 80.2685 28.4768 80.1852 28.4768 78.1868C28.4768 77.1044 27.3944 76.8546 26.3952 76.688C22.7315 75.6889 22.3984 74.6064 22.3984 71.9419L22.8148 41.7165Z" fill="white"/>
<path d="M419.326 62.7832C418.16 62.2003 417.827 62.6999 417.078 63.5326C412.248 71.1097 387.269 81.2681 384.271 56.0387C384.188 55.6223 384.354 55.5391 385.353 55.2893L412.914 48.1284C417.577 46.9627 418.993 45.5472 418.993 42.1333C418.993 33.1406 408.668 25.5635 396.428 25.5635C379.691 25.5635 368.034 37.2207 368.034 53.957C368.034 69.8608 378.859 80.5188 395.012 80.5188C405.42 80.5188 414.913 74.94 418.993 67.6126L419.659 66.1971C420.408 64.8648 420.908 63.5326 419.326 62.7832ZM388.767 36.1382C390.932 33.7235 393.763 32.308 396.511 32.308C401.174 32.308 405.004 35.9717 405.004 40.468C405.004 42.5497 404.088 43.4656 400.841 44.548L384.437 49.7105C384.354 49.7105 384.354 49.7105 384.271 49.7105C384.271 49.7105 384.188 49.6272 384.188 49.544C384.604 45.1309 385.353 40.0517 388.767 36.1382Z" fill="white"/>
<path d="M463.123 25.8127C461.874 25.5629 460.625 25.4797 459.293 25.6462C458.793 25.7295 458.294 25.8127 457.794 25.896C457.627 25.896 457.461 25.9793 457.211 26.0625C457.211 26.0625 457.211 26.0625 457.128 26.0625C453.381 26.9785 449.967 29.0601 446.22 32.474C445.471 33.2234 445.221 33.2234 444.888 33.2234C444.388 33.2234 444.388 32.807 444.388 31.7246V27.145C444.388 26.4789 444.388 25.6462 443.639 25.6462C443.306 25.6462 443.139 25.6462 441.141 26.8119C434.979 30.3923 427.985 32.2242 423.405 33.1401C421.49 33.4732 420.907 33.5564 420.907 34.8887C420.907 35.7213 420.991 36.3875 422.323 36.6373C427.485 37.4699 427.902 37.6365 427.985 41.4667V60.7843V66.5296C427.985 66.5296 427.985 69.2774 427.985 70.6096C427.902 74.19 427.485 75.5223 424.071 76.5215C422.989 76.8545 422.573 77.0211 422.573 78.1035C422.573 79.8521 423.738 79.9354 425.237 79.9354H428.151H446.886H448.468C449.967 79.9354 451.382 79.8521 451.382 78.1035C451.382 76.7713 450.883 76.688 449.8 76.3549C447.552 75.8553 445.138 75.1892 444.971 72.2749C444.721 70.11 444.721 56.2047 444.721 52.9573C444.721 51.1255 444.721 45.5467 444.721 41.2169C444.721 36.2209 449.717 33.4732 453.381 33.4732C455.296 33.4732 457.378 34.5556 458.96 36.3042C459.542 37.0536 459.959 37.7197 459.959 37.7197C460.958 39.4683 462.04 40.301 463.706 40.634C466.12 41.2169 468.702 40.3842 470.034 38.3026C473.198 33.723 469.035 27.145 463.123 25.8127Z" fill="white"/>
<path d="M493.931 29.4767C496.678 29.4767 498.094 30.5592 498.76 33.3069C500.259 38.7192 501.674 40.551 506.254 40.551C509.918 40.551 511.999 38.8024 511.999 35.6384C511.999 30.8089 507.336 25.6465 495.346 25.6465C484.688 25.6465 473.031 31.9747 473.031 42.4661C473.031 49.2106 477.361 53.8735 485.271 58.7029C492.432 63.2825 496.096 66.1968 496.096 69.7772C496.096 73.9405 493.265 76.7715 488.102 76.7715C484.272 76.7715 482.856 75.356 482.274 72.9413C480.525 65.947 479.109 64.2817 474.28 64.2817C470.117 64.2817 468.035 66.6131 468.035 70.027C468.035 75.2728 473.281 80.6018 486.52 80.6018C499.759 80.6018 510.251 72.6083 510.251 62.8662C510.251 56.9543 506.754 51.8751 498.843 47.2123C490.434 41.9665 486.687 39.5518 486.687 35.7216C486.687 31.6416 489.601 29.4767 493.931 29.4767Z" fill="white"/>
<path fill-rule="evenodd" clip-rule="evenodd" d="M367.118 76.3545C363.705 75.4386 363.122 74.4394 363.038 72.108V43.2981C363.038 38.3022 362.622 33.8058 359.708 30.8083C356.377 27.2278 351.964 25.7291 347.135 25.7291C340.64 25.7291 335.061 28.227 330.065 32.3903C328.65 33.7226 328.483 33.7226 328.317 33.7226C327.817 33.7226 327.817 33.223 327.817 31.974L327.9 13.5723V2.24817C327.9 0.915922 327.9 0 327.068 0C326.818 0 326.651 4.96301e-07 325.569 0.749391C320.406 3.74695 315.077 5.91186 308.833 7.32737C305.585 7.9935 305.502 8.07676 305.502 9.15921C305.502 9.99187 305.752 10.7413 306.834 10.9911C309.832 11.7404 310.415 11.8237 310.748 13.8221C310.997 15.2376 310.997 22.3152 310.997 24.5633V68.7774C310.997 74.0231 310.997 75.4386 307.417 76.7709C306.251 77.1039 305.585 77.2704 305.585 78.3529C305.585 80.1015 306.418 80.1015 308.416 80.1015H330.648C332.563 80.1015 333.979 80.0182 333.979 78.0198C333.979 76.9374 332.896 76.6876 331.897 76.5211C328.233 75.5219 327.9 74.4394 327.9 71.7749L328.317 41.5495C328.317 37.8026 331.314 33.7226 337.226 33.7226C343.305 33.7226 345.969 37.303 345.969 41.5495V68.1112C345.969 72.0247 345.802 73.2737 345.303 74.7725C344.887 75.9382 343.804 76.2713 342.139 76.6876C341.14 76.9374 340.64 77.1872 340.64 78.2696C340.64 79.019 340.973 79.8517 341.806 80.0182H359.874H365.869C367.868 80.0182 369.283 79.7684 369.283 77.8533C369.2 76.7709 368.034 76.6043 367.118 76.3545Z" fill="white"/>
</svg>
