<svg width="512" height="85" viewBox="0 0 512 85" fill="none" xmlns="http://www.w3.org/2000/svg">
<path d="M152.503 33.959H158.041V55.4839H188.343V33.959H193.829V83.5394H188.343V60.6561H158.041V83.5394H152.503V33.959Z" fill="white"/>
<path d="M200.516 67.1871C200.516 57.1038 207.307 49.9463 216.921 49.9463C226.481 49.9463 233.325 57.1038 233.325 67.1871C233.325 77.3749 226.534 84.5847 216.921 84.5847C207.36 84.5324 200.516 77.3226 200.516 67.1871ZM227.84 67.1871C227.84 59.7683 223.294 54.5961 216.921 54.5961C210.547 54.5961 206.054 59.8206 206.054 67.1871C206.054 74.6581 210.547 79.9349 216.921 79.9349C223.294 79.8826 227.84 74.6059 227.84 67.1871Z" fill="white"/>
<path d="M239.229 50.8862H244.662V56.7899C247.013 52.6625 250.88 49.8936 256.313 49.8936C262.112 49.8936 265.822 52.4013 267.389 57.3646C270.053 52.767 274.442 49.8936 279.98 49.8936C287.869 49.8936 291.944 54.6478 291.944 63.6862V83.5393H286.511V63.8952C286.511 58.2005 283.689 54.5434 278.674 54.5434C272.457 54.5434 268.225 60.0813 268.225 67.6568V83.5393H262.791V63.8952C262.791 58.2005 260.022 54.5434 255.059 54.5434C248.738 54.5434 244.61 60.0813 244.61 67.6568V83.5393H239.177L239.229 50.8862Z" fill="white"/>
<path d="M298.057 67.1871C298.057 57.1038 304.848 49.9463 314.566 49.9463C322.246 49.9463 329.038 55.641 329.038 66.6647V69.0679H303.647C304.065 75.5985 308.035 80.0916 314.409 80.0916C319.268 80.0916 322.56 77.2181 323.239 74.4491H328.62C327.627 79.9349 322.142 84.6369 314.566 84.6369C304.848 84.5324 298.057 77.3226 298.057 67.1871ZM323.657 64.5749C323.395 58.5667 319.582 54.5438 314.409 54.5438C308.349 54.5438 304.587 58.5145 303.751 64.5749H323.657Z" fill="white"/>
<path d="M341.003 78.1582V83.5394H335.569V33.959H341.003V56.3198C343.354 52.2969 347.115 49.8937 351.87 49.8937C360.49 49.8937 366.707 57.0512 366.707 67.0822C366.707 77.3222 360.542 84.532 351.87 84.532C347.168 84.5843 343.354 82.181 341.003 78.1582ZM361.274 67.1867C361.274 59.768 357.042 54.5957 350.982 54.5957C344.973 54.5957 340.689 59.8202 340.689 67.1867C340.689 74.6578 344.973 79.9345 350.982 79.9345C357.042 79.8822 361.274 74.6055 361.274 67.1867Z" fill="white"/>
<path d="M371.2 67.1871C371.2 57.1038 377.992 49.9463 387.605 49.9463C397.166 49.9463 404.01 57.1038 404.01 67.1871C404.01 77.3749 397.218 84.5847 387.605 84.5847C378.044 84.5324 371.2 77.3226 371.2 67.1871ZM398.524 67.1871C398.524 59.7683 393.979 54.5961 387.605 54.5961C381.231 54.5961 376.738 59.8206 376.738 67.1871C376.738 74.6581 381.231 79.9349 387.605 79.9349C393.979 79.8826 398.524 74.6059 398.524 67.1871Z" fill="white"/>
<path d="M438.074 83.5398H432.64V77.6361C430.289 81.7635 426.423 84.5324 420.989 84.5324C413.1 84.5324 409.025 79.7781 409.025 70.7398V50.8867H414.459V70.5308C414.459 76.2255 417.228 79.8826 422.296 79.8826C428.513 79.8826 432.692 74.3447 432.692 66.7692V50.8867H438.126L438.074 83.5398Z" fill="white"/>
<path d="M445.858 50.8862H451.292V56.7899C453.643 52.6625 457.509 49.8936 462.942 49.8936C470.884 49.8936 474.907 54.6478 474.907 63.6862V83.5393H469.473V63.8952C469.473 58.2005 466.704 54.5434 461.741 54.5434C455.419 54.5434 451.292 60.0813 451.292 67.6568V83.5393H445.858V50.8862Z" fill="white"/>
<path d="M480.914 67.0822C480.914 57.0512 487.079 49.8937 495.752 49.8937C500.454 49.8937 504.268 52.2969 506.619 56.3198V33.959H512V83.5394H506.566V78.1582C504.215 82.181 500.454 84.6365 495.699 84.5843C487.079 84.532 480.914 77.3222 480.914 67.0822ZM506.88 67.1867C506.88 59.768 502.596 54.5957 496.588 54.5957C490.527 54.5957 486.295 59.8202 486.295 67.1867C486.295 74.6578 490.527 79.9345 496.588 79.9345C502.596 79.8823 506.88 74.6055 506.88 67.1867Z" fill="white"/>
<path d="M135.314 83.5396H0.20898L0 34.0114L65.6718 0L123.82 33.071L121.208 37.6163L65.5673 6.00816L5.27673 37.1461L5.43347 78.2629H135.314V83.5396Z" fill="white"/>
</svg>
