<svg width="35" height="35" viewBox="0 0 35 35" fill="none" xmlns="http://www.w3.org/2000/svg"><path d="M18.4821 18.4661L21.8812 9.63945H25.8963L24.8443 10.6893C24.6345 10.8663 24.5278 11.1414 24.5602 11.4142V21.7443C24.5279 22.0161 24.6338 22.2904 24.8423 22.4674L25.8715 23.519H20.1487L21.2377 22.4199L21.2378 22.42L21.2419 22.4156C21.3206 22.3338 21.4095 22.2315 21.4546 22.0833C21.4895 21.9686 21.4891 21.846 21.4888 21.7586C21.4888 21.7509 21.4887 21.7435 21.4887 21.7363V13.346L20.7426 13.2095L16.8514 23.4922H16.8303L12.2971 13.1907L11.5587 13.346V20.3802C11.5131 20.7764 11.6402 21.173 11.9081 21.4647L13.5112 23.4884H9.33862L10.9402 21.4633C11.2037 21.1715 11.3283 20.77 11.2701 20.3736V12.2596C11.2958 11.9339 11.177 11.6101 10.9475 11.3806L9.56099 9.63945H13.8958L17.7692 18.4822L18.1452 19.3408L18.4821 18.4661Z" fill="white" stroke="white" stroke-width="0.771084"></path><circle cx="17.6507" cy="17.3494" r="16.9639" stroke="white" stroke-width="0.771084"></circle></svg>