<svg width="35" height="35" viewBox="0 0 35 35" fill="none" xmlns="http://www.w3.org/2000/svg"><path d="M25.0857 13.2894C25.0975 13.4665 25.0975 13.6437 25.0975 13.8208C25.0975 19.2226 21.2812 25.4467 14.3062 25.4467C12.1573 25.4467 10.1611 24.7762 8.48193 23.6124C8.78725 23.6503 9.08078 23.6629 9.39784 23.6629C11.1709 23.6629 12.8031 23.0178 14.1066 21.9172C12.4391 21.8792 11.0418 20.7027 10.5603 19.0834C10.7952 19.1214 11.03 19.1467 11.2766 19.1467C11.6172 19.1467 11.9577 19.096 12.2747 19.0075C10.5369 18.628 9.23342 16.9834 9.23342 14.9973V14.9467C9.73832 15.2503 10.3255 15.4401 10.9478 15.4653C9.9262 14.7316 9.25691 13.4792 9.25691 12.0623C9.25691 11.3033 9.44476 10.6075 9.77357 10.0003C11.6406 12.4798 14.4471 14.099 17.594 14.2762C17.5353 13.9726 17.5001 13.6563 17.5001 13.3401C17.5001 11.0882 19.191 9.25391 21.2929 9.25391C22.3849 9.25391 23.3713 9.74728 24.0641 10.5443C24.9213 10.3672 25.7432 10.0256 26.4713 9.55752C26.1894 10.5063 25.5906 11.3033 24.8039 11.8093C25.5671 11.7208 26.3069 11.493 26.988 11.1768C26.4714 11.9864 25.8255 12.7075 25.0857 13.2894Z" fill="white"></path><circle cx="17.3494" cy="17.3494" r="16.9639" stroke="white" stroke-width="0.771084"></circle></svg>